<?xml version="1.0" encoding="UTF-8"?>
<svg id="svg8" version="1.1" viewBox="0 0 24 24" xmlns="http://www.w3.org/2000/svg">
 <g id="g6445" transform="matrix(1.0594 0 0 1.0594 -.71259 -.51093)" style="stroke-width:.94395">
  <path id="path1956" d="m12 1.7793c-1.4327 0-2.6032 1.1705-2.6032 2.6032 0 0.81667 0.38831 1.5388 0.98082 2.0169-1.3804 0.62362-2.3506 2.0067-2.3506 3.6154v0.47197h3.5011v3.0402h-7.2824v2.8982h-2.2179v5.4148h5.4148v-5.4148h-2.2529v-1.9524h6.3385v1.9524h-2.2345v5.4148h5.4129v-5.4148h-2.2345v-1.9524h6.3384v1.9524h-2.2529v5.4148h5.4148v-5.4148h-2.2179v-2.8982h-7.2824v-3.0402h3.5011v-0.47197c0-1.6087-0.9702-2.9918-2.3506-3.6154 0.5925-0.47814 0.98082-1.2003 0.98082-2.0169 0-1.4327-1.1705-2.6032-2.6032-2.6032zm0 0.9421c0.92256 0 1.6593 0.73856 1.6593 1.6611 0 0.92256-0.73672 1.6593-1.6593 1.6593s-1.6593-0.73672-1.6593-1.6593c0-0.92256 0.73672-1.6611 1.6593-1.6611zm0 4.2662c1.4928 0 2.5779 1.1379 2.8318 2.5553h-5.6637c0.25394-1.4174 1.339-2.5553 2.8318-2.5553zm-9.0265 10.382h3.525v3.5269h-3.525zm7.2621 0h3.5287v3.5269h-3.5287zm7.2658 0h3.525v3.5269h-3.525z" style="color-rendering:auto;color:#000000;dominant-baseline:auto;font-feature-settings:normal;font-variant-alternates:normal;font-variant-caps:normal;font-variant-east-asian:normal;font-variant-ligatures:normal;font-variant-numeric:normal;font-variant-position:normal;font-variation-settings:normal;image-rendering:auto;inline-size:0;isolation:auto;mix-blend-mode:normal;paint-order:stroke fill markers;shape-margin:0;shape-padding:0;shape-rendering:auto;solid-color:#000000;stop-color:#000000;text-decoration-color:#000000;text-decoration-line:none;text-decoration-style:solid;text-indent:0;text-orientation:mixed;text-transform:none;white-space:normal"/>
 </g>
</svg>
